# xmcd
#
# Track frame offsets:
#  151
#  26127
#  48683
#  71584
#  109371
#  129562
#  151735
#  178632
#  203813
#  226494
#  253640
#
# Disc length: 4270 seconds
#
# Revision: 0
# Processed by: cddbd v1.4PL0 Copyright (c) Steve Scherf et al.
# Submitted via: AltoMP3_Maker 3.0
#
DISCID=9b10ac0b
DTITLE=Hot Street - Live At Yancy's San Luis Obispo 1982
DYEAR=1900
DGENRE=
TTITLE0=Get Ready Get Set
TTITLE1=I Thank You
TTITLE2=Harden My Heart
TTITLE3=Stormy Monday
TTITLE4=Don't Give Up
TTITLE5=Runnin' From My Life
TTITLE6=Under My Thumb
TTITLE7=Even It Up
TTITLE8=Don't Let Love Slip Away
TTITLE9=Heartbreak Hotel
TTITLE10=Tore Down-Funk Jam
EXTD=
EXTT0=
EXTT1=
EXTT2=
EXTT3=
EXTT4=
EXTT5=
EXTT6=
EXTT7=
EXTT8=
EXTT9=
EXTT10=
PLAYORDER=
